<svg id="Layer_1" enable-background="new 0 0 512 512" viewBox="0 0 512 512" xmlns="http://www.w3.org/2000/svg"><path d="m8.06 248.86c.29-9.9 1.19-19.91 2.68-29.73.66-4.37 4.74-7.37 9.11-6.71s7.37 4.74 6.71 9.11c-1.39 9.19-2.24 18.54-2.51 27.81-.13 4.34-3.68 7.76-7.99 7.76-.08 0-.16 0-.24 0-4.42-.14-7.89-3.83-7.76-8.24zm48.59-118.59c2.58 0 5.11-1.24 6.65-3.54 6.56-9.77 13.93-19.13 21.93-27.8 2.99-3.25 2.79-8.31-.46-11.3s-8.31-2.79-11.3.46c-8.55 9.28-16.44 19.28-23.45 29.73-2.46 3.67-1.48 8.64 2.19 11.1 1.35.91 2.9 1.35 4.44 1.35zm-31.15 152.53c-.51-4.39-4.48-7.54-8.87-7.02-4.39.51-7.53 4.48-7.02 8.87 1.22 10.46 3.14 20.95 5.69 31.19.91 3.64 4.17 6.06 7.76 6.06.64 0 1.29-.08 1.94-.24 4.29-1.07 6.89-5.41 5.82-9.7-2.39-9.56-4.18-19.38-5.32-29.16zm15.19-133.18c-4.03-1.82-8.77-.03-10.58 4-4.36 9.65-8.13 19.65-11.21 29.72-1.29 4.23 1.09 8.7 5.31 9.99.78.24 1.57.35 2.34.35 3.42 0 6.59-2.22 7.65-5.66 2.88-9.43 6.41-18.79 10.49-27.81 1.82-4.03.03-8.77-4-10.59zm447.1 169.05c-4.23-1.29-8.7 1.09-9.99 5.31-2.88 9.43-6.41 18.79-10.49 27.81-1.82 4.03-.03 8.77 4 10.58 1.07.48 2.19.71 3.29.71 3.05 0 5.96-1.75 7.3-4.71 4.36-9.65 8.13-19.65 11.21-29.72 1.28-4.22-1.09-8.69-5.32-9.98zm-1.29-89.47c.48 4.07 3.93 7.07 7.94 7.07.31 0 .62-.02.94-.05 4.39-.51 7.53-4.49 7.02-8.87-1.22-10.46-3.14-20.95-5.69-31.19-1.07-4.29-5.42-6.89-9.7-5.82-4.29 1.07-6.89 5.41-5.82 9.7 2.38 9.56 4.17 19.38 5.31 29.16zm-26.7 153.88c-3.67-2.46-8.64-1.48-11.1 2.19-6.55 9.77-13.93 19.13-21.93 27.8-2.99 3.25-2.79 8.31.46 11.3 1.54 1.42 3.48 2.12 5.42 2.12 2.16 0 4.31-.87 5.88-2.58 8.55-9.28 16.44-19.28 23.45-29.74 2.47-3.65 1.49-8.62-2.18-11.09zm36.38-128.17c-4.43-.14-8.1 3.34-8.23 7.76-.27 9.26-1.12 18.62-2.51 27.81-.66 4.37 2.34 8.45 6.71 9.11.41.06.81.09 1.21.09 3.89 0 7.3-2.84 7.9-6.8 1.49-9.82 2.39-19.83 2.68-29.73.13-4.42-3.34-8.11-7.76-8.24zm-107.89 191.66c-56.22 39-126.33 51.22-192.34 33.53-28.5-7.64-55.35-20.69-78.84-38.22l8.28 1.49c4.35.78 8.51-2.11 9.29-6.46s-2.11-8.51-6.46-9.29l-37.43-6.71c-2.81-.5-5.68.53-7.53 2.71s-2.38 5.19-1.41 7.87l12.9 35.78c1.5 4.16 6.08 6.31 10.24 4.81s6.31-6.08 4.81-10.24l-2.69-7.46c25.22 18.9 54.07 32.97 84.7 41.18 21.2 5.68 42.79 8.48 64.26 8.48 49.99 0 99.3-15.15 141.33-44.31 3.63-2.52 4.53-7.5 2.01-11.13-2.5-3.65-7.49-4.55-11.12-2.03zm40.45-358.18c1.84-2.18 2.38-5.19 1.41-7.87l-12.9-35.78c-1.5-4.16-6.08-6.31-10.24-4.81s-6.31 6.08-4.81 10.24l2.69 7.46c-25.22-18.9-54.04-32.96-84.7-41.18-70.56-18.91-145.5-5.85-205.6 35.84-3.63 2.52-4.53 7.5-2.01 11.13s7.5 4.53 11.13 2.01c56.22-39 126.33-51.22 192.34-33.53 28.52 7.64 55.34 20.69 78.84 38.22l-8.28-1.49c-4.34-.77-8.51 2.11-9.29 6.46s2.11 8.51 6.46 9.29l37.43 6.71c.47.08.94.13 1.41.13 2.34.01 4.58-1.01 6.12-2.83zm-277.25 285.34v19.98h213.79v-9.52h-187.99c-7.65 0-13.87-6.22-13.87-13.87v-3.7c0-4.42 3.58-8 8-8s8 3.58 8 8v1.57h203.66v-220.24h-33.93c-4.42 0-8-3.58-8-8v-37.53h-161.73v62.05c0 4.42-3.58 8-8 8s-8-3.58-8-8v-41.99h-11.93v34.88c0 4.42-3.58 8-8 8s-8-3.58-8-8v-39.84c0-6.09 4.96-11.05 11.07-11.05h16.86v-6.19c0-7.65 6.22-13.87 13.87-13.87h171.86c.28 0 .56.02.83.04.01 0 .02 0 .04.01.26.03.52.07.78.12.01 0 .02.01.04.01.26.05.51.12.75.2.03.01.06.02.09.03.22.07.44.16.66.25.06.03.11.06.17.08.18.08.36.17.54.27.08.04.15.09.23.14.15.09.3.18.44.28.09.06.17.13.25.19.13.1.25.19.37.3.09.07.17.15.25.23.11.11.22.21.33.32.03.04.07.07.11.11l41.93 45.53c.05.05.09.11.14.17.08.09.16.19.24.29s.15.2.22.3c.08.11.15.21.22.33.06.1.12.2.18.3.07.12.14.24.21.37.05.09.09.19.14.29.06.13.12.27.18.4.04.09.07.19.11.29.05.14.1.28.14.43.03.1.05.21.08.31.04.14.07.28.1.42.03.13.04.27.06.4.02.12.04.23.05.35.03.26.04.52.04.78v230.37c0 7.65-6.22 13.87-13.87 13.87h-3.93v14.47c0 6.09-4.96 11.05-11.07 11.05h-223.64c-6.1 0-11.07-4.96-11.07-11.05v-24.93c0-4.42 3.58-8 8-8s8 3.58 8 8zm205.66-241.78h15.69l-15.69-17.03zm-51.18 35.61h-40.68c-4.42 0-8 3.58-8 8s3.58 8 8 8h40.68c4.42 0 8-3.58 8-8s-3.58-8-8-8zm-58.41 8c0-4.42-3.58-8-8-8h-35.58c-4.42 0-8 3.58-8 8s3.58 8 8 8h35.58c4.42 0 8-3.58 8-8zm-23.57 46.82h63c4.42 0 8-3.58 8-8s-3.58-8-8-8h-63c-4.42 0-8 3.58-8 8s3.58 8 8 8zm136.7-8c0-4.42-3.58-8-8-8h-40.1c-4.42 0-8 3.58-8 8s3.58 8 8 8h40.1c4.41 0 8-3.58 8-8zm-124.89 30.82c-4.42 0-8 3.58-8 8s3.58 8 8 8h112.94c4.42 0 8-3.58 8-8s-3.58-8-8-8zm-3.62 54.82h115.24c4.42 0 8-3.58 8-8s-3.58-8-8-8h-115.24c-4.42 0-8 3.58-8 8s3.58 8 8 8zm-26.2 30.82c0 4.42 3.58 8 8 8h128.17c4.42 0 8-3.58 8-8s-3.58-8-8-8h-128.17c-4.41 0-8 3.58-8 8zm-67.56 21.05c-47.61 0-86.35-38.73-86.35-86.35 0-47.61 38.73-86.35 86.35-86.35 47.61 0 86.35 38.73 86.35 86.35s-38.74 86.35-86.35 86.35zm0-16c38.79 0 70.35-31.56 70.35-70.35s-31.56-70.35-70.35-70.35-70.35 31.56-70.35 70.35 31.56 70.35 70.35 70.35zm35.25-99c-3.33-2.9-8.38-2.56-11.29.77l-33.82 38.79-14.49-14.49c-3.13-3.12-8.19-3.12-11.31 0s-3.12 8.19 0 11.31l20.54 20.54c1.5 1.5 3.54 2.34 5.66 2.34h.27c2.22-.08 4.3-1.07 5.76-2.74l39.45-45.25c2.91-3.31 2.56-8.36-.77-11.27z"/></svg>