<?xml version="1.0"?>
<svg xmlns="http://www.w3.org/2000/svg" id="Layer_6" data-name="Layer 6" viewBox="0 0 24 24"><path d="M18.5,13.78V8.41a1.52,1.52,0,0,0-.44-1.06L13.65,2.94a1.52,1.52,0,0,0-1.06-.44H6A1.5,1.5,0,0,0,4.5,4V19A1.5,1.5,0,0,0,6,20.5h7.26a4.49,4.49,0,1,0,5.24-6.72ZM16.79,7.5H14a.5.5,0,0,1-.5-.5V4.21ZM6,19.5a.5.5,0,0,1-.5-.5V4A.5.5,0,0,1,6,3.5h6.5V7A1.5,1.5,0,0,0,14,8.5h3.5v5.05a4.23,4.23,0,0,0-.5-.05A4.51,4.51,0,0,0,12.5,18a4.39,4.39,0,0,0,.28,1.5Zm11,2A3.5,3.5,0,1,1,20.5,18,3.5,3.5,0,0,1,17,21.5Z"/><path d="M19,17.5H17.5V16a.5.5,0,0,0-1,0v1.5H15a.5.5,0,0,0,0,1h1.5V20a.5.5,0,0,0,1,0V18.5H19a.5.5,0,0,0,0-1Z"/></svg>
