<svg id="Layer_1" viewBox="0 0 24 24" xmlns="http://www.w3.org/2000/svg" data-name="Layer 1"><path d="m12 11.75c2.62 0 4.75-2.13 4.75-4.75s-2.13-4.75-4.75-4.75-4.75 2.13-4.75 4.75 2.13 4.75 4.75 4.75zm0-8c1.79 0 3.25 1.46 3.25 3.25s-1.46 3.25-3.25 3.25-3.25-1.46-3.25-3.25 1.46-3.25 3.25-3.25z"/><path d="m9 14.75h4c.41 0 .75-.34.75-.75s-.34-.75-.75-.75h-4c-3.17 0-5.75 2.58-5.75 5.75 0 1.52 1.23 2.75 2.75 2.75h6.97c.41 0 .75-.34.75-.75s-.34-.75-.75-.75h-6.97c-.69 0-1.25-.56-1.25-1.25 0-2.34 1.91-4.25 4.25-4.25z"/><path d="m19.06 18 1.59-1.59c.29-.29.29-.77 0-1.06s-.77-.29-1.06 0l-1.59 1.59-1.59-1.59c-.29-.29-.77-.29-1.06 0s-.29.77 0 1.06l1.59 1.59-1.59 1.59c-.29.29-.29.77 0 1.06.15.15.34.22.53.22s.38-.07.53-.22l1.59-1.59 1.59 1.59c.15.15.34.22.53.22s.38-.07.53-.22c.29-.29.29-.77 0-1.06z"/></svg>