<svg clip-rule="evenodd" fill-rule="evenodd" height="512" stroke-linejoin="round" stroke-miterlimit="2" viewBox="0 0 24 24" width="512" xmlns="http://www.w3.org/2000/svg"><g id="Icon"><path d="m16 2.25s-5.18 0-9 0c-1.26 0-2.468.5-3.359 1.391s-1.391 2.099-1.391 3.359v10c0 1.26.5 2.468 1.391 3.359s2.099 1.391 3.359 1.391h10c1.26 0 2.468-.5 3.359-1.391s1.391-2.099 1.391-3.359c0-3.146 0-7 0-7 0-.414-.336-.75-.75-.75s-.75.336-.75.75v7c0 .862-.342 1.689-.952 2.298-.609.61-1.436.952-2.298.952h-10c-.862 0-1.689-.342-2.298-.952-.61-.609-.952-1.436-.952-2.298 0-2.977 0-7.023 0-10 0-.862.342-1.689.952-2.298.609-.61 1.436-.952 2.298-.952h9c.414 0 .75-.336.75-.75s-.336-.75-.75-.75z"/><path d="m21.469 15.414s-2.044-1.634-3.518-2.813c-1.142-.915-2.801-.774-3.773.32-2.254 2.535-6.739 7.581-6.739 7.581-.275.309-.247.784.063 1.059.309.275.784.247 1.059-.063 0 0 4.484-5.045 6.738-7.581.442-.497 1.196-.561 1.715-.145 0 0 3.517 2.814 3.517 2.814.324.258.796.206 1.055-.117.258-.324.206-.796-.117-1.055z"/><path d="m13.005 14.445s-2.657-2.415-4.277-3.888c-.976-.887-2.445-.957-3.5-.165-1.165.873-2.678 2.008-2.678 2.008-.331.248-.398.719-.15 1.05s.719.398 1.05.15c0 0 1.513-1.135 2.678-2.008.479-.36 1.147-.329 1.591.075l4.276 3.888c.307.278.782.256 1.06-.05.278-.307.256-.782-.05-1.06z"/><path d="m20.25 7.5v-4.5c0-.414-.336-.75-.75-.75s-.75.336-.75.75v4.5c0 .414.336.75.75.75s.75-.336.75-.75z"/><circle cx="9.5" cy="6.5" r="1.5"/><path d="m17.47 6.53 1.5 1.5c.293.293.767.293 1.06 0l1.5-1.5c.293-.292.293-.768 0-1.06-.292-.293-.768-.293-1.06 0l-.97.969s-.97-.969-.97-.969c-.292-.293-.768-.293-1.06 0-.293.292-.293.768 0 1.06z"/></g></svg>